# xmcd CD database file
#
# Track frame offsets:
#	150
#	38020
#	48841
#	79251
#	104614
#	144442
#
# Disc length: 2489 seconds
#
# Revision: 0
# Processed by: cddbd v1.5.2PL0 Copyright (c) Steve Scherf et al.
# Submitted via: CDex 1.70beta2
#
DISCID=4709b706
DTITLE=Vidya Rao - Dharma Nada
DYEAR=1900
DGENRE=New Age
TTITLE0=Chanting the Names of Manjusri – Chapter 10 
TTITLE1=Homage to Five Tathagathas 
TTITLE2=Bodhicaryavatara Chapter 2, Offering 
TTITLE3=Interdependence – Nagarjuna’s Karika 
TTITLE4=The Heart Sutra 
TTITLE5=Recollection of the Three Jewels
EXTD=
EXTT0=
EXTT1=
EXTT2=
EXTT3=
EXTT4=
EXTT5=
PLAYORDER=
